<svg xmlns="http://www.w3.org/2000/svg" viewBox="0 0 90 90" width="256" height="256">
  <g fill="none">
  <path d="M 76.82 13.18 C 68.676 5.037 57.426 0 45 0 C 20.147 0 0 20.147 0 45 c 0 8.265 2.238 16.003 6.127 22.659 L 0 90 l 22.341 -6.127 C 28.997 87.762 36.735 90 45 90 c 24.853 0 45 -20.147 45 -45 C 90 32.574 84.963 21.324 76.82 13.18 z" fill="#F46623" fill-rule="nonzero" />
  <path d="M 63.662 56.233 c -0.279 -0.465 -1.022 -0.744 -2.137 -1.301 c -1.115 -0.557 -6.595 -3.254 -7.617 -3.626 c -1.022 -0.372 -1.765 -0.557 -2.509 0.559 c -0.743 1.115 -2.878 3.625 -3.529 4.368 c -0.65 0.745 -1.301 0.838 -2.415 0.28 c -1.115 -0.559 -4.705 -1.735 -8.964 -5.532 c -0.084 -0.075 -0.164 -0.152 -0.246 -0.227 c -3.177 -2.912 -5.321 -6.404 -5.955 -7.492 c -0.65 -1.115 -0.069 -1.718 0.49 -2.274 c 0.501 -0.499 1.115 -1.302 1.673 -1.952 c 0.556 -0.651 0.742 -1.116 1.113 -1.859 c 0.372 -0.744 0.186 -1.395 -0.093 -1.953 c -0.279 -0.558 -2.445 -6.07 -3.436 -8.274 l 0.001 0 c -0.835 -1.856 -1.714 -1.894 -2.508 -1.926 c -0.65 -0.028 -1.394 -0.026 -2.136 -0.026 c -0.743 0 -1.951 0.279 -2.972 1.394 c -1.022 1.116 -3.902 3.812 -3.902 9.296 c 0 5.485 3.995 10.784 4.551 11.529 c 0.333 0.445 3.029 4.779 7.565 9.147 c 3.047 2.934 6.923 5.883 11.476 7.679 c 9.416 3.713 11.333 2.975 13.376 2.789 c 2.044 -0.186 6.595 -2.696 7.524 -5.299 C 63.941 58.93 63.941 56.699 63.662 56.233 z" fill="#219E35" fill-rule="nonzero" />
  <path d="M 67.662 55.233 c -0.279 -0.465 -1.022 -0.744 -2.137 -1.301 c -1.115 -0.557 -6.595 -3.254 -7.617 -3.626 c -1.022 -0.372 -1.765 -0.557 -2.509 0.559 c -0.743 1.115 -2.878 3.625 -3.529 4.368 c -0.65 0.745 -1.301 0.838 -2.415 0.28 c -1.115 -0.559 -4.705 -1.735 -8.964 -5.532 c -0.084 -0.075 -0.164 -0.152 -0.246 -0.227 c -3.177 -2.912 -5.321 -6.404 -5.955 -7.492 c -0.65 -1.115 -0.069 -1.718 0.49 -2.274 c 0.501 -0.499 1.115 -1.302 1.673 -1.952 c 0.556 -0.651 0.742 -1.116 1.113 -1.859 c 0.372 -0.744 0.186 -1.395 -0.093 -1.953 c -0.279 -0.558 -2.445 -6.07 -3.436 -8.274 l 0.001 0 c -0.835 -1.856 -1.714 -1.894 -2.508 -1.926 c -0.65 -0.028 -1.394 -0.026 -2.136 -0.026 c -0.743 0 -1.951 0.279 -2.972 1.394 c -1.022 1.116 -3.902 3.812 -3.902 9.296 c 0 5.485 3.995 10.784 4.551 11.529 c 0.333 0.445 3.029 4.779 7.565 9.147 c 3.047 2.934 6.923 5.883 11.476 7.679 c 9.416 3.713 11.333 2.975 13.376 2.789 c 2.044 -0.186 6.595 -2.696 7.524 -5.299 C 67.941 57.93 67.941 55.699 67.662 55.233 z" fill="#FFFFFF" fill-rule="nonzero" />
  <path d="M 76.82 13.18 C 69.109 5.47 58.612 0.552 46.969 0.05 c 6.941 2.54 13.167 6.564 18.292 11.689 C 74.367 20.845 80 33.426 80 47.322 c 0 16.353 -7.806 30.878 -19.889 40.07 C 77.529 81.182 90 64.551 90 45 C 90 32.574 84.963 21.324 76.82 13.18 z" fill="#219E35" fill-rule="nonzero" />
  </g>
</svg>
