<svg xmlns="http://www.w3.org/2000/svg" viewBox="0 0 90 90" width="256" height="256">
  <g fill="none">
  <path d="M 45 90 L 45 90 C 20.147 90 0 69.853 0 45 v 0 C 0 20.147 20.147 0 45 0 h 0 c 24.853 0 45 20.147 45 45 v 0 C 90 69.853 69.853 90 45 90 z" fill="#2AB540" fill-rule="nonzero" />
  <path d="M 18.73 43.752 c -0.002 4.824 1.259 9.535 3.656 13.686 L 18.5 71.623 l 14.518 -3.807 c 4 2.182 8.503 3.331 13.086 3.333 h 0.011 c 15.092 0 27.378 -12.282 27.385 -27.376 c 0.003 -7.315 -2.844 -14.194 -8.013 -19.368 c -5.17 -5.174 -12.046 -8.026 -19.371 -8.028 C 31.02 16.377 18.736 28.657 18.73 43.752 M 46.115 71.149 L 46.115 71.149 L 46.115 71.149 C 46.115 71.149 46.114 71.149 46.115 71.149" fill="#FFFFFF" fill-rule="nonzero" />
  <path d="M 55.267 42.287 c 0.781 -1.223 1.24 -2.671 1.24 -4.227 v -3.313 c 0 -4.348 -3.537 -7.886 -7.886 -7.886 h -9.697 c -1.381 0 -2.5 1.119 -2.5 2.5 v 14.085 V 57.53 c 0 1.381 1.119 2.5 2.5 2.5 h 11.949 c 4.349 0 7.886 -3.537 7.886 -7.886 v -3.313 C 58.759 46.108 57.372 43.704 55.267 42.287 z M 41.424 31.86 h 7.197 c 1.591 0 2.886 1.294 2.886 2.886 v 3.313 c 0 1.591 -1.295 2.886 -2.886 2.886 h -7.197 V 31.86 z M 53.759 52.145 c 0 1.591 -1.295 2.886 -2.886 2.886 h -9.449 v -9.085 h 7.197 h 2.252 c 1.591 0 2.886 1.295 2.886 2.886 V 52.145 z" fill="#2AB540" fill-rule="nonzero" />
  </g>
</svg>
